<?xml version="1.0" encoding="UTF-8"?><svg id="Layer_1" xmlns="http://www.w3.org/2000/svg" viewBox="0 0 1435.97 273.39"><defs><style>.cls-1{fill:#ee4136;}.cls-2{isolation:isolate;}</style></defs><g class="cls-2"><path class="cls-1" d="m83.99,239.52H0V0h41.37v205.61h42.62v33.91Z"/></g><g class="cls-2"><path class="cls-1" d="m164.27,239.52h-41.37V0h41.37v239.52Z"/></g><g class="cls-2"><path class="cls-1" d="m304.52,0l-29.24,239.52h-49.15L196.27,0h42.62l13.06,156.16L266.57,0h37.95Z"/><path class="cls-1" d="m423.65,238.9h-83.99V0h83.68v32.97h-42.31v66.26h35.15v33.59h-35.15v73.1h42.62v32.97Z"/></g><g class="cls-2"><path class="cls-1" d="m503.85,111.79h61.54c29.99,0,45.33,9.59,45.33,30.68s-24.23,29.46-42.01,30.86v.35c18.13,2.61,35.56,9.24,35.56,30.51s-19.52,33.47-53,33.47h-74.96l2.44-9.41c11.68,0,13.6-.52,16.21-9.94,19.18-69.21,24.06-88.74,24.06-91.52,0-5.23-3.66-5.58-17.61-5.58l2.44-9.41Zm44.63,66.25c-5.58,0-9.24.17-12.73.35-10.98,40.27-11.33,42.01-11.33,44.45,0,3.66,1.57,5.4,15.69,5.4,18.83,0,31.9-9.07,31.9-31.73,0-13.07-8.37-18.48-23.54-18.48Zm11.33-56.83c-7.32,0-9.59,2.09-11.68,10.29l-9.94,37.66c3.14.17,6.28.35,11.33.35,17.08,0,30.16-8.89,30.16-32.77,0-8.89-6.1-15.51-19.87-15.51Z"/></g><g class="cls-2"><path class="cls-1" d="m625.52,156.42l40.97-1.92-5.58,22.31.35.35c6.8-11.51,16.74-24.23,31.9-24.23,8.72,0,16.04,5.58,16.04,14.64,0,8.19-4.53,14.64-13.42,14.64-6.62,0-11.68-4.36-11.68-11.51,0-3.83-.35-4.53-2.44-4.53-3.66,0-13.95,10.81-21.97,26.32-5.58,10.81-9.07,23.54-14.47,45.15h-27.89l16.04-51.6c3.31-10.63,4.36-13.95,4.36-15.69,0-4.88-2.09-6.45-9.59-6.45h-4.53l1.92-7.5Z"/></g><g class="cls-2"><path class="cls-1" d="m712.92,156.42l45.68-1.92c-20.75,63.98-21.44,66.59-21.44,69.21,0,2.27.87,3.31,2.96,3.31,4.71,0,10.81-7.5,19-19.7l6.45,4.53c-12.03,17.61-22.31,28.42-36.78,28.42-8.54,0-17.78-5.4-17.78-15.34s14.47-47.59,14.47-54.57c0-4.88-2.09-6.45-9.59-6.45h-4.88l1.92-7.5Zm36.44-47.24c8.02,0,14.47,6.45,14.47,14.47s-6.45,14.47-14.47,14.47-14.47-6.45-14.47-14.47,6.45-14.47,14.47-14.47Z"/><path class="cls-1" d="m793.46,111.09l45.15-1.92c-32.6,105.82-33.65,110.7-33.65,113.49s1.22,4.36,3.66,4.36c2.79,0,8.72-3.84,19.35-19.7l6.45,4.71c-12.55,19-24.06,28.24-38.88,28.24-8.89,0-16.74-6.45-16.74-15.69,0-12.73,27.89-92.22,27.89-99.54,0-4.88-2.09-6.45-9.59-6.45h-5.58l1.92-7.5Z"/><path class="cls-1" d="m861.27,111.09l45.15-1.92c-32.6,105.82-33.65,110.7-33.65,113.49s1.22,4.36,3.66,4.36c2.79,0,8.72-3.84,19.35-19.7l6.45,4.71c-12.55,19-24.06,28.24-38.88,28.24-8.89,0-16.74-6.45-16.74-15.69,0-12.73,27.89-92.22,27.89-99.54,0-4.88-2.09-6.45-9.59-6.45h-5.58l1.92-7.5Z"/><path class="cls-1" d="m916.36,156.42l45.68-1.92c-20.75,63.98-21.44,66.59-21.44,69.21,0,2.27.87,3.31,2.96,3.31,4.71,0,10.81-7.5,19-19.7l6.45,4.53c-12.03,17.61-22.31,28.42-36.78,28.42-8.54,0-17.78-5.4-17.78-15.34s14.47-47.59,14.47-54.57c0-4.88-2.09-6.45-9.59-6.45h-4.88l1.92-7.5Zm36.44-47.24c8.02,0,14.47,6.45,14.47,14.47s-6.45,14.47-14.47,14.47-14.47-6.45-14.47-14.47,6.45-14.47,14.47-14.47Z"/><path class="cls-1" d="m1051.99,157.11h27.37c-15.86,51.25-19,60.32-19,65.72,0,2.44,1.05,3.31,2.61,3.31,2.62,0,6.97-3.49,18.13-19.7l6.45,4.36c-13.95,20.75-23.53,29.46-36.61,29.46-8.37,0-14.64-5.06-14.64-12.9,0-.7,0-1.74.17-2.62l-.35-.35c-6.8,9.59-16.04,15.86-28.24,15.86-17.08,0-30.16-12.03-30.16-30.51,0-27.37,22.14-55.26,49.51-55.26,9.41,0,18.3,4.01,21.97,12.2l2.79-9.59Zm-19,6.8c-6.28,0-11.16,3.83-16.91,13.25-5.06,8.37-10.46,26.67-10.46,37.13,0,9.41,4.36,14.12,11.16,14.12,5.4,0,10.63-3.14,16.91-14.12,4.88-8.54,10.29-28.76,10.29-38.35,0-8.54-6.1-12.03-10.98-12.03Z"/><path class="cls-1" d="m1100.1,156.42l42.01-1.92-5.93,23.88.35.35c12.03-16.74,22.49-24.23,36.26-24.23,10.46,0,19.18,6.1,19.18,19.18,0,11.33-15.34,45.15-15.34,49.51,0,2.09,1.05,2.79,2.79,2.79,2.44,0,7.15-2.27,18.65-18.83l6.28,4.36c-8.19,12.9-19.7,28.76-36.78,28.76-8.89,0-17.08-4.88-17.08-14.64,0-10.63,15.34-43.06,15.34-51.43,0-4.01-2.27-5.4-4.88-5.4-9.24,0-21.27,15.34-25.63,23.71-5.58,10.81-9.07,23.54-14.47,45.15h-27.89l16.04-51.6c3.31-10.63,4.36-13.95,4.36-15.69,0-4.88-2.09-6.45-9.59-6.45h-5.58l1.92-7.5Z"/><path class="cls-1" d="m1248.81,124.34h25.1l-10.11,32.77h18.83l-2.79,10.46h-19.53c-14.99,46.02-16.91,52.12-16.91,55.61,0,2.62,1.39,3.84,3.14,3.84,2.96,0,7.67-4.53,19.35-20.57l5.58,4.18c-9.41,14.99-22.31,29.64-37.31,29.64-8.72,0-17.61-6.45-17.61-15.52,0-7.84,2.62-14.82,17.61-57.18h-15.86l2.79-10.46h16.56l11.16-32.77Z"/></g><g class="cls-2"><path class="cls-1" d="m1303.55,111.09l45.15-1.92c-32.6,105.82-33.65,110.7-33.65,113.49s1.22,4.36,3.66,4.36c2.79,0,8.72-3.84,19.35-19.7l6.45,4.71c-12.55,19-24.06,28.24-38.88,28.24-8.89,0-16.74-6.45-16.74-15.69,0-12.73,27.89-92.22,27.89-99.54,0-4.88-2.09-6.45-9.59-6.45h-5.58l1.92-7.5Z"/></g><g class="cls-2"><path class="cls-1" d="m1349.15,190.06c3.66-18.48,12.2-35.56,27.54-35.56,9.76,0,14.99,7.15,18.3,19l11.68,40.97c10.81-19.7,12.38-25.1,12.38-30.16,0-4.18-7.15-12.73-7.15-17.78,0-7.32,4.88-12.03,12.03-12.03s12.03,3.83,12.03,10.98c0,19.87-36.26,77.58-50.38,92.57-9.76,10.29-17.26,15.34-29.46,15.34-9.07,0-17.61-6.28-17.61-15.86,0-7.5,5.23-12.38,12.03-12.38s12.03,4.01,12.03,10.81c0,2.27-1.39,4.53-1.39,6.1,0,1.39,1.22,1.92,2.62,1.92,3.14,0,12.2-4.36,24.75-22.49-6.45-21.27-11.33-41.84-19.18-63.8-.87-2.44-2.09-3.66-3.83-3.66-3.31,0-6.1,5.23-9.24,18.65l-7.15-2.62Z"/></g></svg>