<?xml version="1.0" encoding="UTF-8"?><svg id="Layer_1" xmlns="http://www.w3.org/2000/svg" viewBox="0 0 486.57 290.07"><defs><style>.cls-1{fill:#fff;}</style></defs><rect class="cls-1" x="170.9" y="21.16" width="67.38" height="18.18" transform="translate(38.54 153.53) rotate(-45)"/><rect class="cls-1" x="262.29" y="-3.44" width="18.18" height="67.38" transform="translate(58.09 200.75) rotate(-45)"/><rect class="cls-1" x="237.69" y="87.96" width="67.38" height="18.18" transform="translate(10.86 220.33) rotate(-45)"/><rect class="cls-1" x="195.5" y="63.36" width="18.18" height="67.38" transform="translate(-8.71 173.09) rotate(-45)"/><path class="cls-1" d="m49.01,181.75h-9.66v61.12h-12.24v-61.12h-9.57v-9.76h31.48v9.76Z"/><path class="cls-1" d="m93.28,242.87h-12.15v-31.29h-7v31.11h-12.15v-70.69h12.15v29.64h7v-29.64h12.15v70.87Z"/><path class="cls-1" d="m132.58,242.68h-24.85v-70.69h24.76v9.76h-12.52v19.6h10.4v9.94h-10.4v21.63h12.61v9.76Z"/><path class="cls-1" d="m194.7,227.86c0,11.23-5.71,14.82-15.37,14.82h-15.28v-70.69h15c10.22,0,15.65,3.87,15.65,16.01v39.85Zm-12.24-41.14c0-4.05-1.2-4.97-3.77-4.97h-2.39v51.17h2.21c2.95,0,3.96-1.2,3.96-4.51v-41.69Z"/><path class="cls-1" d="m220.75,242.68h-12.24v-70.69h12.24v70.69Z"/><path class="cls-1" d="m264.84,242.68h-12.33l-.92-9.85h-7.27l-.92,9.85h-10.22l9.11-70.69h13.16l9.39,70.69Zm-14.45-19.7l-2.21-28.17-2.85,28.17h5.06Z"/><path class="cls-1" d="m317.67,242.87h-11.78v-33.13l-5.25,33.13h-7.55l-5.52-33.13v33.13h-10.12v-70.87h14.17l5.61,41.69,6.63-41.69h13.81v70.87Z"/><path class="cls-1" d="m362.03,228.14c0,11.6-6.9,15.65-15.1,15.65s-15.46-4.33-15.46-15.65v-41.7c0-11.5,7.18-15.65,15.46-15.65s15.1,4.05,15.1,15.65v41.7Zm-12.15-44.09c0-2.76-1.56-3.87-3.04-3.87-1.84,0-3.13,1.1-3.13,3.87v46.39c0,2.67,1.2,3.87,3.22,3.87,1.84,0,2.95-1.1,2.95-3.77v-46.48Z"/><path class="cls-1" d="m404.19,242.87h-9.02l-9.11-36.36v36.36h-10.12v-70.87h10.31l7.82,31.39v-31.39h10.12v70.87Z"/><path class="cls-1" d="m449.38,227.86c0,11.23-5.71,14.82-15.37,14.82h-15.28v-70.69h15c10.22,0,15.65,3.87,15.65,16.01v39.85Zm-12.24-41.14c0-4.05-1.2-4.97-3.77-4.97h-2.39v51.17h2.21c2.95,0,3.96-1.2,3.96-4.51v-41.69Z"/><path class="cls-1" d="m8.87,269.82c.74,0,1.4.12,1.99.36.59.24,1.1.56,1.52.98.42.41.74.89.97,1.44.22.55.33,1.13.33,1.76,0,.97-.2,1.8-.61,2.51-.41.71-1.07,1.24-1.99,1.61v.05c.45.12.81.31,1.11.56.29.25.53.55.71.9.18.35.32.73.4,1.14s.14.83.17,1.24c.02.26.03.57.05.92.02.35.04.71.08,1.08.04.37.1.72.18,1.05s.21.61.38.84h-3.62c-.2-.52-.32-1.14-.37-1.87-.05-.72-.12-1.41-.21-2.07-.12-.86-.38-1.49-.78-1.89s-1.05-.6-1.96-.6h-3.62v6.43H0v-16.45h8.87Zm-1.29,7.44c.83,0,1.45-.18,1.87-.55.42-.37.62-.97.62-1.8s-.21-1.38-.62-1.74c-.41-.36-1.04-.54-1.87-.54h-3.96v4.63h3.96Z"/><path class="cls-1" d="m30.32,269.82v3.04h-8.69v3.53h7.97v2.81h-7.97v4.03h8.87v3.04h-12.49v-16.45h12.31Z"/><path class="cls-1" d="m37.91,269.82l6.87,11.04h.05v-11.04h3.39v16.45h-3.62l-6.84-11.01h-.05v11.01h-3.39v-16.45h3.59Z"/><path class="cls-1" d="m51.46,272.86v-3.04h13.48v3.04h-4.93v13.41h-3.62v-13.41h-4.93Z"/><path class="cls-1" d="m74.31,269.82l6.15,16.45h-3.76l-1.24-3.66h-6.15l-1.29,3.66h-3.64l6.22-16.45h3.71Zm.21,10.09l-2.07-6.04h-.05l-2.14,6.04h4.26Z"/><path class="cls-1" d="m86.9,269.82v13.41h8.02v3.04h-11.64v-16.45h3.62Z"/><path class="cls-1" d="m109.71,269.82v13.41h8.02v3.04h-11.64v-16.45h3.62Z"/><path class="cls-1" d="m124.76,269.82v16.45h-3.62v-16.45h3.62Z"/><path class="cls-1" d="m132.87,286.27l-5.32-16.45h3.71l3.66,11.57h.05l3.71-11.57h3.73l-5.46,16.45h-4.08Z"/><path class="cls-1" d="m148.81,269.82v16.45h-3.62v-16.45h3.62Z"/><path class="cls-1" d="m156.97,269.82l6.87,11.04h.05v-11.04h3.39v16.45h-3.62l-6.84-11.01h-.05v11.01h-3.39v-16.45h3.59Z"/><path class="cls-1" d="m181.56,286.14c-.78.33-1.57.5-2.37.5-1.26,0-2.39-.22-3.4-.66-1.01-.44-1.85-1.04-2.55-1.81s-1.22-1.67-1.59-2.71-.55-2.15-.55-3.35.18-2.37.55-3.42c.37-1.05.9-1.97,1.59-2.75s1.54-1.4,2.55-1.84c1.01-.45,2.14-.67,3.4-.67.84,0,1.66.13,2.45.38.79.25,1.51.63,2.14,1.12.64.49,1.16,1.1,1.58,1.82.41.72.67,1.55.76,2.49h-3.46c-.22-.92-.63-1.61-1.24-2.07-.61-.46-1.36-.69-2.24-.69-.81,0-1.51.16-2.07.47-.57.32-1.03.74-1.38,1.27-.35.53-.61,1.13-.77,1.81-.16.68-.24,1.38-.24,2.1s.08,1.36.24,2.02c.16.65.42,1.24.77,1.76s.81.94,1.38,1.26c.57.31,1.26.47,2.07.47,1.2,0,2.12-.3,2.78-.91.65-.61,1.03-1.49,1.14-2.64h-3.64v-2.7h6.91v8.89h-2.3l-.37-1.87c-.65.83-1.36,1.41-2.14,1.74Z"/><path class="cls-1" d="m194.12,282.72v3.55c0,.52-.1,1-.29,1.44-.19.44-.45.82-.77,1.14-.32.32-.7.59-1.14.79s-.9.35-1.39.43v-1.66c.23-.05.45-.14.66-.28.21-.14.39-.3.54-.5.15-.19.27-.41.35-.65.08-.24.11-.48.09-.73h-1.66v-3.55h3.62Z"/><path class="cls-1" d="m220.97,257.15h15.04l-.55,2.14c-2.65,0-3.24.2-3.8,2.25l-3.84,14.52c-1.98,7.48-4.99,10.25-11.99,10.25-5.42,0-8.63-2.41-8.63-7.2,0-4.08,2.33-6.29,5.1-6.29,2.41,0,4.27,1.34,4.27,3.92,0,1.86-1.42,3.48-3.32,3.48-1.54,0-1.98-.87-2.69-.87-.59,0-.87.44-.87,1.42,0,2.02,2.33,3.4,4.23,3.4,2.57,0,5.42-1.9,6.69-6.61,1.38-5.22,4.27-15.83,4.27-17.01s-.83-1.27-4.47-1.27l.55-2.14Z"/><path class="cls-1" d="m234.5,267.27l10.29-.44c-2.53,8.9-4.79,13.77-4.79,15.11,0,.47.36,1.11,1.07,1.11,1.15,0,3.24-1.42,5.06-4.19,1.54-2.33,2.45-5.22,4.27-11.43h6.33c-1.62,3.96-4.83,13.53-4.83,15,0,.4.28.63.79.63.48,0,1.11-.4,3.88-4.31l1.42,1.03c-3.44,5.14-5.58,6.53-8.39,6.53-2.06,0-3.64-.99-3.64-3.17,0-.51,0-1.03.16-1.46l-.08-.08c-1.74,2.41-4.39,4.71-7.6,4.71-2.45,0-4.39-1.7-4.39-4,0-2.69,3.44-11,3.44-11.87,0-1.11-.47-1.46-2.18-1.46h-1.27l.44-1.7Z"/><path class="cls-1" d="m261.61,267.27l9.54-.44-1.34,5.42.08.08c2.73-3.8,5.1-5.5,8.23-5.5,2.37,0,4.35,1.38,4.35,4.35,0,2.57-3.48,10.25-3.48,11.24,0,.47.24.63.63.63.55,0,1.62-.51,4.23-4.27l1.42.99c-1.86,2.93-4.47,6.53-8.35,6.53-2.02,0-3.88-1.11-3.88-3.32,0-2.41,3.48-9.77,3.48-11.67,0-.91-.51-1.23-1.11-1.23-2.1,0-4.83,3.48-5.82,5.38-1.27,2.45-2.06,5.34-3.28,10.25h-6.33l3.64-11.71c.75-2.41.99-3.17.99-3.56,0-1.11-.47-1.46-2.18-1.46h-1.27l.44-1.7Z"/><path class="cls-1" d="m304.38,281.2c-2.49,2.85-5.06,5.1-9.1,5.1-4.51,0-8.19-2.53-8.19-7.32,0-7.6,6.37-12.15,12.5-12.15,3.4,0,6.57,1.5,6.57,5.3,0,2.06-1.54,3.4-3.56,3.4-1.66,0-2.77-1.34-2.77-2.97,0-2.14,1.94-2.06,1.94-2.97,0-.55-.51-1.07-1.78-1.07-1.38,0-2.45.67-3.92,2.61-1.19,1.58-2.65,5.78-2.65,8.82,0,2.26,1.03,3.96,3.52,3.96,2.06,0,4.04-1.54,6.05-3.92l1.38,1.19Z"/><path class="cls-1" d="m316.61,259.99h5.7l-2.29,7.44h4.27l-.63,2.37h-4.43c-3.4,10.45-3.84,11.83-3.84,12.62,0,.59.32.87.71.87.67,0,1.74-1.03,4.39-4.67l1.27.95c-2.14,3.4-5.06,6.73-8.47,6.73-1.98,0-4-1.46-4-3.52,0-1.78.59-3.36,4-12.98h-3.6l.63-2.37h3.76l2.53-7.44Z"/><path class="cls-1" d="m326.15,267.27l10.37-.44c-4.71,14.52-4.87,15.11-4.87,15.71,0,.51.2.75.67.75,1.07,0,2.45-1.7,4.31-4.47l1.46,1.03c-2.73,4-5.06,6.45-8.35,6.45-1.94,0-4.04-1.23-4.04-3.48s3.28-10.8,3.28-12.38c0-1.11-.47-1.46-2.18-1.46h-1.11l.44-1.7Zm8.27-10.72c1.82,0,3.28,1.46,3.28,3.28s-1.46,3.28-3.28,3.28-3.28-1.46-3.28-3.28,1.46-3.28,3.28-3.28Z"/><path class="cls-1" d="m352.03,266.84c4.95,0,8.78,2.41,8.78,7.72,0,6.88-5.93,11.75-12.19,11.75-4.95,0-8.78-2.41-8.78-7.72,0-6.88,5.93-11.75,12.19-11.75Zm.12,1.7c-1.94,0-3.4,1.7-4.59,5.1-.87,2.53-1.62,6.13-1.62,7.56,0,1.82.59,3.4,2.57,3.4s3.4-1.7,4.59-5.1c.87-2.53,1.62-6.13,1.62-7.56,0-1.82-.59-3.4-2.57-3.4Z"/><path class="cls-1" d="m364.18,267.27l9.54-.44-1.34,5.42.08.08c2.73-3.8,5.1-5.5,8.23-5.5,2.37,0,4.35,1.38,4.35,4.35,0,2.57-3.48,10.25-3.48,11.24,0,.47.24.63.63.63.55,0,1.62-.51,4.23-4.27l1.42.99c-1.86,2.93-4.47,6.53-8.35,6.53-2.02,0-3.88-1.11-3.88-3.32,0-2.41,3.48-9.77,3.48-11.67,0-.91-.51-1.23-1.11-1.23-2.1,0-4.83,3.48-5.82,5.38-1.27,2.45-2.06,5.34-3.28,10.25h-6.33l3.64-11.71c.75-2.41.99-3.17.99-3.56,0-1.11-.47-1.46-2.18-1.46h-1.27l.44-1.7Z"/><path class="cls-1" d="m421.16,257.15h10.68l-.55,2.14c-1.86.04-3.32,1.46-4.31,3.12l-13.97,23.7h-2.61l-4.79-23.82c-.59-2.97-.87-3.01-4.23-3.01l.55-2.14h14.28l-.55,2.14h-2.02c-1.03,0-1.54.4-1.54,1.27,0,.32.04.75,3.13,17.25h.08c8.86-15.71,9.02-16.34,9.02-16.86,0-1.15-.91-1.66-2.1-1.66h-1.62l.55-2.14Z"/><path class="cls-1" d="m429.75,267.27l10.37-.44c-4.71,14.52-4.87,15.11-4.87,15.71,0,.51.2.75.67.75,1.07,0,2.45-1.7,4.31-4.47l1.46,1.03c-2.73,4-5.06,6.45-8.35,6.45-1.94,0-4.04-1.23-4.04-3.48s3.28-10.8,3.28-12.38c0-1.11-.47-1.46-2.18-1.46h-1.11l.43-1.7Zm8.27-10.72c1.82,0,3.28,1.46,3.28,3.28s-1.46,3.28-3.28,3.28-3.28-1.46-3.28-3.28,1.46-3.28,3.28-3.28Z"/><path class="cls-1" d="m447.12,256.99l10.25-.44-3.8,12.3.08.08c1.15-1.23,3.4-2.1,5.1-2.1,3.84,0,6.73,2.49,6.73,6.96,0,5.7-5.18,12.5-12.62,12.5-4.59,0-8.27-2.06-8.27-6.61,0-3.72,5.54-17.41,5.54-19.55,0-1.11-.47-1.46-2.18-1.46h-1.27l.44-1.7Zm9.34,12.54c-1.31,0-2.53.87-3.52,2.33-1.58,2.33-2.89,6.57-2.89,9.69,0,1.78.83,3.05,2.69,3.05,1.19,0,2.26-.55,3.52-2.29,1.27-1.7,2.89-6.61,2.89-9.73,0-1.78-.83-3.05-2.69-3.05Z"/><path class="cls-1" d="m484.59,282.19c-2.37,2.65-5.3,4.12-8.9,4.12-4.79,0-8.07-2.1-8.07-7.2,0-6.65,5.82-12.27,12.46-12.27,3.68,0,6.49,1.9,6.49,4.75,0,5.34-8.67,6.73-12.7,6.96-.08.55-.16,1.15-.16,1.7,0,2.49,1.15,3.92,3.72,3.92,1.94,0,3.76-1.11,5.9-3.28l1.27,1.31Zm-4.63-13.65c-2.37,0-4.79,3.17-5.82,8.31,4-.44,7.68-3.05,7.68-6.37,0-1.03-.71-1.94-1.86-1.94Z"/></svg>