<?xml version="1.0" encoding="utf-8"?>
<!-- Generator: Adobe Illustrator 27.5.0, SVG Export Plug-In . SVG Version: 6.00 Build 0)  -->
<svg version="1.1" id="Layer_1" xmlns="http://www.w3.org/2000/svg" xmlns:xlink="http://www.w3.org/1999/xlink" x="0px" y="0px"
	 viewBox="0 0 363.9 97.3" style="enable-background:new 0 0 363.9 97.3;" xml:space="preserve">
<style type="text/css">
	.st0{fill:#483829;}
	.st1{fill:#EF3B31;}
	.st2{clip-path:url(#SVGID_00000078029296016172915810000009842940407351618984_);}
	.st3{clip-path:url(#SVGID_00000073701305778078188700000015641612993635334532_);}
</style>
<rect x="3.1" y="19.1" transform="matrix(0.7071 -0.7071 0.7071 0.7071 -10.37 24.9919)" class="st0" width="43.8" height="11.8"/>
<rect x="62.5" y="3.1" transform="matrix(0.7071 -0.7071 0.7071 0.7071 2.3571 55.7102)" class="st1" width="11.8" height="43.8"/>
<rect x="46.5" y="62.5" transform="matrix(0.7071 -0.7071 0.7071 0.7071 -28.3712 68.4331)" class="st1" width="43.8" height="11.8"/>
<rect x="19.1" y="46.6" transform="matrix(0.7071 -0.7071 0.7071 0.7071 -41.0983 37.7148)" class="st0" width="11.8" height="43.8"/>
<g>
	<defs>
		<rect id="SVGID_1_" x="0.8" width="91.9" height="96.1"/>
	</defs>
	<clipPath id="SVGID_00000070094615061327291890000004669496739740073117_">
		<use xlink:href="#SVGID_1_"  style="overflow:visible;"/>
	</clipPath>
	<g style="clip-path:url(#SVGID_00000070094615061327291890000004669496739740073117_);">
		<path class="st0" d="M21.3,153.6c0,7.3-3.7,9.6-10,9.6H1.4v-46h9.8c6.7,0,10.2,2.5,10.2,10.4V153.6L21.3,153.6z M13.3,126.8
			c0-2.6-0.8-3.2-2.5-3.2H9.3v33.3h1.4c1.9,0,2.6-0.8,2.6-2.9L13.3,126.8L13.3,126.8z"/>
		<rect x="30.3" y="117.2" class="st0" width="8" height="46"/>
		<path class="st0" d="M67,163.2h-8l-0.6-6.4h-4.7l-0.6,6.4h-6.6l5.9-46h8.6L67,163.2L67,163.2z M57.6,150.4l-1.4-18.3l-1.9,18.3
			L57.6,150.4L57.6,150.4z"/>
		<polygon class="st0" points="101.4,163.3 93.7,163.3 93.7,141.8 90.3,163.3 85.4,163.3 81.8,141.8 81.8,163.3 75.2,163.3 
			75.2,117.2 84.4,117.2 88.1,144.3 92.4,117.2 101.4,117.2 		"/>
		<path class="st0" d="M130.2,153.7c0,7.5-4.5,10.2-9.8,10.2s-10.1-2.8-10.1-10.2v-27.1c0-7.5,4.7-10.2,10.1-10.2s9.8,2.6,9.8,10.2
			L130.2,153.7L130.2,153.7z M122.3,125.1c0-1.8-1-2.5-2-2.5c-1.2,0-2,0.7-2,2.5v30.2c0,1.7,0.8,2.5,2.1,2.5c1.2,0,1.9-0.7,1.9-2.5
			L122.3,125.1L122.3,125.1z"/>
		<polygon class="st0" points="157.6,163.3 151.8,163.3 145.8,139.7 145.8,163.3 139.2,163.3 139.2,117.2 145.9,117.2 151,137.6 
			151,117.2 157.6,117.2 		"/>
		<path class="st0" d="M187,153.6c0,7.3-3.7,9.6-10,9.6h-9.9v-46h9.8c6.6,0,10.2,2.5,10.2,10.4V153.6L187,153.6z M179.1,126.8
			c0-2.6-0.8-3.2-2.5-3.2h-1.6v33.3h1.4c1.9,0,2.6-0.8,2.6-2.9L179.1,126.8L179.1,126.8z"/>
		<path class="st1" d="M-103.2,180.1c0.5,0,0.9,0.1,1.3,0.2c0.4,0.2,0.7,0.4,1,0.6c0.3,0.3,0.5,0.6,0.6,0.9c0.1,0.4,0.2,0.7,0.2,1.1
			c0,0.6-0.1,1.2-0.4,1.6c-0.3,0.5-0.7,0.8-1.3,1.1v0c0.3,0.1,0.5,0.2,0.7,0.4s0.3,0.4,0.5,0.6c0.1,0.2,0.2,0.5,0.3,0.7
			c0.1,0.3,0.1,0.5,0.1,0.8c0,0.2,0,0.4,0,0.6c0,0.2,0,0.5,0,0.7c0,0.2,0.1,0.5,0.1,0.7c0.1,0.2,0.1,0.4,0.2,0.6h-2.3
			c-0.1-0.3-0.2-0.7-0.2-1.2c0-0.5-0.1-0.9-0.1-1.4c-0.1-0.6-0.2-1-0.5-1.2s-0.7-0.4-1.3-0.4h-2.3v4.2h-2.3v-10.7L-103.2,180.1
			L-103.2,180.1z M-104.1,184.9c0.5,0,0.9-0.1,1.2-0.4c0.3-0.2,0.4-0.6,0.4-1.2s-0.1-0.9-0.4-1.1c-0.3-0.2-0.7-0.4-1.2-0.4h-2.6v3
			L-104.1,184.9L-104.1,184.9z"/>
		<polygon class="st1" points="-89.3,180.1 -89.3,182.1 -94.9,182.1 -94.9,184.4 -89.7,184.4 -89.7,186.2 -94.9,186.2 -94.9,188.8 
			-89.2,188.8 -89.2,190.8 -97.3,190.8 -97.3,180.1 		"/>
		<polygon class="st1" points="-84.3,180.1 -79.9,187.3 -79.8,187.3 -79.8,180.1 -77.6,180.1 -77.6,190.8 -80,190.8 -84.4,183.6 
			-84.5,183.6 -84.5,190.8 -86.7,190.8 -86.7,180.1 		"/>
		<polygon class="st1" points="-75.5,182.1 -75.5,180.1 -66.7,180.1 -66.7,182.1 -69.9,182.1 -69.9,190.8 -72.3,190.8 -72.3,182.1 
					"/>
		<path class="st1" d="M-60.6,180.1l4,10.7h-2.4l-0.8-2.4h-4l-0.8,2.4h-2.4l4-10.7H-60.6z M-60.5,186.7l-1.3-3.9h0l-1.4,3.9
			C-63.3,186.7-60.5,186.7-60.5,186.7z"/>
		<polygon class="st1" points="-52.5,180.1 -52.5,188.8 -47.2,188.8 -47.2,190.8 -54.8,190.8 -54.8,180.1 		"/>
		<polygon class="st1" points="-37.6,180.1 -37.6,188.8 -32.4,188.8 -32.4,190.8 -40,190.8 -40,180.1 		"/>
		<rect x="-30.2" y="180.1" class="st1" width="2.3" height="10.7"/>
		<polygon class="st1" points="-22.5,190.8 -26,180.1 -23.6,180.1 -21.2,187.6 -21.2,187.6 -18.8,180.1 -16.3,180.1 -19.9,190.8 		
			"/>
		<rect x="-14.5" y="180.1" class="st1" width="2.3" height="10.7"/>
		<polygon class="st1" points="-6.8,180.1 -2.4,187.3 -2.3,187.3 -2.3,180.1 -0.2,180.1 -0.2,190.8 -2.5,190.8 -6.9,183.6 -7,183.6 
			-7,190.8 -9.2,190.8 -9.2,180.1 		"/>
		<path class="st1" d="M9.2,190.7c-0.5,0.2-1,0.3-1.5,0.3c-0.8,0-1.6-0.1-2.2-0.4c-0.7-0.3-1.2-0.7-1.7-1.2c-0.4-0.5-0.8-1.1-1-1.8
			s-0.4-1.4-0.4-2.2s0.1-1.5,0.4-2.2c0.2-0.7,0.6-1.3,1-1.8c0.4-0.5,1-0.9,1.7-1.2c0.7-0.3,1.4-0.4,2.2-0.4c0.6,0,1.1,0.1,1.6,0.2
			c0.5,0.2,1,0.4,1.4,0.7c0.4,0.3,0.8,0.7,1,1.2c0.3,0.5,0.4,1,0.5,1.6H9.9c-0.1-0.6-0.4-1.1-0.8-1.4c-0.4-0.3-0.9-0.4-1.4-0.4
			c-0.5,0-1,0.1-1.3,0.3c-0.4,0.2-0.7,0.5-0.9,0.8c-0.2,0.3-0.4,0.7-0.5,1.2c-0.1,0.4-0.2,0.9-0.2,1.4s0.1,0.9,0.2,1.3
			c0.1,0.4,0.3,0.8,0.5,1.1s0.5,0.6,0.9,0.8s0.8,0.3,1.3,0.3c0.8,0,1.4-0.2,1.8-0.6s0.7-1,0.7-1.7H7.8V185h4.5v5.8h-1.5l-0.2-1.2
			C10.1,190.2,9.7,190.5,9.2,190.7"/>
		<path class="st1" d="M17.3,188.5v2.3c0,0.3-0.1,0.6-0.2,0.9c-0.1,0.3-0.3,0.5-0.5,0.7s-0.5,0.4-0.7,0.5c-0.3,0.1-0.6,0.2-0.9,0.3
			v-1.1c0.2,0,0.3-0.1,0.4-0.2c0.1-0.1,0.2-0.2,0.3-0.3c0.1-0.1,0.2-0.3,0.2-0.4c0.1-0.1,0.1-0.3,0.1-0.5H15v-2.3L17.3,188.5
			L17.3,188.5z"/>
		<path class="st1" d="M34.7,171.9h9.8l-0.4,1.4c-1.7,0-2.1,0.1-2.5,1.5l-2.5,9.4c-1.3,4.9-3.2,6.7-7.8,6.7c-3.5,0-5.6-1.6-5.6-4.7
			c0-2.6,1.5-4.1,3.3-4.1c1.6,0,2.8,0.9,2.8,2.6c0,1.2-0.9,2.3-2.2,2.3c-1,0-1.3-0.6-1.8-0.6c-0.4,0-0.6,0.3-0.6,0.9
			c0,1.3,1.5,2.2,2.8,2.2c1.7,0,3.5-1.2,4.4-4.3c0.9-3.4,2.8-10.3,2.8-11.1s-0.5-0.8-2.9-0.8L34.7,171.9L34.7,171.9z"/>
		<path class="st1" d="M43.5,178.4l6.7-0.3c-1.6,5.8-3.1,9-3.1,9.8c0,0.3,0.2,0.7,0.7,0.7c0.8,0,2.1-0.9,3.3-2.7
			c1-1.5,1.6-3.4,2.8-7.4H58c-1.1,2.6-3.1,8.8-3.1,9.8c0,0.3,0.2,0.4,0.5,0.4c0.3,0,0.7-0.3,2.5-2.8l0.9,0.7
			c-2.2,3.4-3.6,4.2-5.5,4.2c-1.3,0-2.4-0.6-2.4-2.1c0-0.3,0-0.7,0.1-0.9l-0.1-0.1c-1.1,1.6-2.9,3.1-4.9,3.1c-1.6,0-2.9-1.1-2.9-2.6
			c0-1.8,2.2-7.2,2.2-7.7c0-0.7-0.3-0.9-1.4-0.9h-0.8L43.5,178.4L43.5,178.4z"/>
		<path class="st1" d="M61.1,178.4l6.2-0.3l-0.9,3.5l0.1,0.1c1.8-2.5,3.3-3.6,5.4-3.6c1.5,0,2.8,0.9,2.8,2.8c0,1.7-2.3,6.7-2.3,7.3
			c0,0.3,0.1,0.4,0.4,0.4c0.4,0,1.1-0.3,2.8-2.8l0.9,0.6c-1.2,1.9-2.9,4.2-5.4,4.2c-1.3,0-2.5-0.7-2.5-2.2c0-1.6,2.3-6.4,2.3-7.6
			c0-0.6-0.3-0.8-0.7-0.8c-1.4,0-3.1,2.3-3.8,3.5c-0.8,1.6-1.3,3.5-2.1,6.7h-4.1l2.4-7.6c0.5-1.6,0.6-2.1,0.6-2.3
			c0-0.7-0.3-0.9-1.4-0.9h-0.8L61.1,178.4L61.1,178.4z"/>
		<path class="st1" d="M89,187.5c-1.6,1.9-3.3,3.3-5.9,3.3c-2.9,0-5.3-1.6-5.3-4.8c0-4.9,4.1-7.9,8.1-7.9c2.2,0,4.3,1,4.3,3.4
			c0,1.3-1,2.2-2.3,2.2c-1.1,0-1.8-0.9-1.8-1.9c0-1.4,1.3-1.3,1.3-1.9c0-0.4-0.3-0.7-1.2-0.7c-0.9,0-1.6,0.4-2.6,1.7
			c-0.8,1-1.7,3.8-1.7,5.7c0,1.5,0.7,2.6,2.3,2.6c1.3,0,2.6-1,3.9-2.6L89,187.5L89,187.5z"/>
		<path class="st1" d="M96.9,173.7h3.7l-1.5,4.8h2.8l-0.4,1.5h-2.9c-2.2,6.8-2.5,7.7-2.5,8.2c0,0.4,0.2,0.6,0.5,0.6
			c0.4,0,1.1-0.7,2.9-3l0.8,0.6c-1.4,2.2-3.3,4.4-5.5,4.4c-1.3,0-2.6-0.9-2.6-2.3c0-1.2,0.4-2.2,2.6-8.4h-2.3l0.4-1.5h2.4
			L96.9,173.7L96.9,173.7z"/>
		<path class="st1" d="M103.1,178.4l6.7-0.3c-3.1,9.4-3.2,9.8-3.2,10.2c0,0.3,0.1,0.5,0.4,0.5c0.7,0,1.6-1.1,2.8-2.9l0.9,0.7
			c-1.8,2.6-3.3,4.2-5.4,4.2c-1.3,0-2.6-0.8-2.6-2.3s2.1-7,2.1-8.1c0-0.7-0.3-0.9-1.4-0.9h-0.7L103.1,178.4L103.1,178.4z
			 M108.5,171.5c1.2,0,2.1,0.9,2.1,2.1s-0.9,2.1-2.1,2.1s-2.1-0.9-2.1-2.1S107.3,171.5,108.5,171.5"/>
		<path class="st1" d="M120,178.2c3.2,0,5.7,1.6,5.7,5c0,4.5-3.9,7.6-7.9,7.6c-3.2,0-5.7-1.6-5.7-5C112,181.3,115.9,178.2,120,178.2
			 M120.1,179.3c-1.3,0-2.2,1.1-3,3.3c-0.6,1.6-1.1,4-1.1,4.9c0,1.2,0.4,2.2,1.7,2.2s2.2-1.1,3-3.3c0.6-1.6,1.1-4,1.1-4.9
			C121.7,180.3,121.3,179.3,120.1,179.3"/>
		<path class="st1" d="M127.9,178.4l6.2-0.3l-0.9,3.5l0.1,0.1c1.8-2.5,3.3-3.6,5.4-3.6c1.5,0,2.8,0.9,2.8,2.8c0,1.7-2.3,6.7-2.3,7.3
			c0,0.3,0.1,0.4,0.4,0.4c0.4,0,1.1-0.3,2.8-2.8l0.9,0.6c-1.2,1.9-2.9,4.2-5.4,4.2c-1.3,0-2.5-0.7-2.5-2.2c0-1.6,2.3-6.4,2.3-7.6
			c0-0.6-0.3-0.8-0.7-0.8c-1.4,0-3.1,2.3-3.8,3.5c-0.8,1.6-1.3,3.5-2.1,6.7h-4.1l2.4-7.6c0.5-1.6,0.6-2.1,0.6-2.3
			c0-0.7-0.3-0.9-1.4-0.9h-0.8L127.9,178.4L127.9,178.4z"/>
		<path class="st1" d="M164.9,171.9h7l-0.4,1.4c-1.2,0-2.2,0.9-2.8,2l-9.1,15.4h-1.7l-3.1-15.5c-0.4-1.9-0.6-2-2.8-2l0.4-1.4h9.3
			l-0.4,1.4H160c-0.7,0-1,0.3-1,0.8c0,0.2,0,0.5,2,11.2h0c5.8-10.2,5.9-10.6,5.9-11c0-0.8-0.6-1.1-1.4-1.1h-1L164.9,171.9
			L164.9,171.9z"/>
		<path class="st1" d="M170.5,178.4l6.7-0.3c-3.1,9.4-3.2,9.8-3.2,10.2c0,0.3,0.1,0.5,0.4,0.5c0.7,0,1.6-1.1,2.8-2.9l1,0.7
			c-1.8,2.6-3.3,4.2-5.4,4.2c-1.3,0-2.6-0.8-2.6-2.3s2.1-7,2.1-8.1c0-0.7-0.3-0.9-1.4-0.9h-0.7L170.5,178.4L170.5,178.4z
			 M175.9,171.5c1.2,0,2.1,0.9,2.1,2.1s-1,2.1-2.1,2.1s-2.1-0.9-2.1-2.1S174.7,171.5,175.9,171.5"/>
		<path class="st1" d="M181.8,171.8l6.7-0.3l-2.5,8l0,0.1c0.8-0.8,2.2-1.4,3.3-1.4c2.5,0,4.4,1.6,4.4,4.5c0,3.7-3.4,8.1-8.2,8.1
			c-3,0-5.4-1.3-5.4-4.3c0-2.4,3.6-11.3,3.6-12.7c0-0.7-0.3-0.9-1.4-0.9h-0.8L181.8,171.8z M187.9,179.9c-0.9,0-1.6,0.6-2.3,1.5
			c-1,1.5-1.9,4.3-1.9,6.3c0,1.2,0.5,2,1.8,2c0.8,0,1.5-0.4,2.3-1.5c0.8-1.1,1.9-4.3,1.9-6.3C189.6,180.7,189.1,179.9,187.9,179.9"
			/>
		<path class="st1" d="M206.2,188.2c-1.5,1.7-3.5,2.7-5.8,2.7c-3.1,0-5.2-1.4-5.2-4.7c0-4.3,3.8-8,8.1-8c2.4,0,4.2,1.2,4.2,3.1
			c0,3.5-5.6,4.4-8.3,4.5c0,0.4-0.1,0.8-0.1,1.1c0,1.6,0.8,2.6,2.4,2.6c1.3,0,2.5-0.7,3.8-2.1L206.2,188.2L206.2,188.2z
			 M203.2,179.3c-1.5,0-3.1,2.1-3.8,5.4c2.6-0.3,5-2,5-4.1C204.4,179.9,203.9,179.3,203.2,179.3"/>
	</g>
</g>
<polygon class="st0" points="134.2,28.2 129.1,28.2 129.1,60 122.8,60 122.8,28.2 117.8,28.2 117.8,23.1 134.2,23.1 "/>
<polygon class="st0" points="157.2,60 150.9,60 150.9,43.7 147.2,43.7 147.2,59.9 140.9,59.9 140.9,23.1 147.2,23.1 147.2,38.5 
	150.9,38.5 150.9,23.1 157.2,23.1 "/>
<polygon class="st0" points="177.7,59.9 164.8,59.9 164.8,23.1 177.7,23.1 177.7,28.2 171.1,28.2 171.1,38.4 176.6,38.4 176.6,43.5 
	171.1,43.5 171.1,54.8 177.7,54.8 "/>
<g>
	<defs>
		<rect id="SVGID_00000062885917730468480890000000406668407105753001_" x="100.2" y="12.4" width="263.7" height="76.8"/>
	</defs>
	<clipPath id="SVGID_00000108267744657747618630000010423311765725468813_">
		<use xlink:href="#SVGID_00000062885917730468480890000000406668407105753001_"  style="overflow:visible;"/>
	</clipPath>
	<g style="clip-path:url(#SVGID_00000108267744657747618630000010423311765725468813_);">
		<path class="st0" d="M210.1,52.2c0,5.8-3,7.7-8,7.7h-8V23.1h7.8c5.3,0,8.1,2,8.1,8.3V52.2z M203.7,30.8c0-2.1-0.6-2.6-2-2.6h-1.2
			v26.6h1.1c1.5,0,2.1-0.6,2.1-2.3V30.8L203.7,30.8z"/>
		<rect x="217.3" y="23.1" class="st0" width="6.4" height="36.8"/>
		<path class="st0" d="M246.6,59.9h-6.4l-0.5-5.1H236l-0.5,5.1h-5.3l4.7-36.8h6.9L246.6,59.9L246.6,59.9z M239.1,49.6L238,35
			l-1.5,14.7H239.1z"/>
		<polygon class="st0" points="274.1,60 268,60 268,42.7 265.3,60 261.3,60 258.5,42.7 258.5,60 253.2,60 253.2,23.1 260.6,23.1 
			263.5,44.8 266.9,23.1 274.1,23.1 		"/>
		<path class="st0" d="M297.2,52.3c0,6-3.6,8.1-7.9,8.1s-8-2.2-8-8.1V30.6c0-6,3.7-8.1,8-8.1s7.9,2.1,7.9,8.1V52.3z M290.9,29.4
			c0-1.4-0.8-2-1.6-2c-1,0-1.6,0.6-1.6,2v24.1c0,1.4,0.6,2,1.7,2c1,0,1.5-0.6,1.5-2C290.9,53.6,290.9,29.4,290.9,29.4z"/>
		<polygon class="st0" points="319.1,60 314.5,60 309.7,41.1 309.7,60 304.5,60 304.5,23.1 309.8,23.1 313.9,39.4 313.9,23.1 
			319.1,23.1 		"/>
		<path class="st0" d="M342.7,52.2c0,5.8-3,7.7-8,7.7h-8V23.1h7.8c5.3,0,8.1,2,8.1,8.3V52.2z M336.3,30.8c0-2.1-0.6-2.6-2-2.6h-1.2
			v26.6h1.1c1.5,0,2.1-0.6,2.1-2.3V30.8L336.3,30.8z"/>
		<path class="st1" d="M110.5,73.4c0.4,0,0.7,0.1,1,0.2s0.6,0.3,0.8,0.5s0.4,0.5,0.5,0.8c0.1,0.3,0.2,0.6,0.2,0.9
			c0,0.5-0.1,0.9-0.3,1.3c-0.2,0.4-0.6,0.7-1,0.8v0c0.2,0.1,0.4,0.2,0.6,0.3c0.1,0.1,0.3,0.3,0.4,0.5c0.1,0.2,0.2,0.4,0.2,0.6
			c0,0.2,0.1,0.4,0.1,0.7c0,0.1,0,0.3,0,0.5c0,0.2,0,0.4,0,0.6c0,0.2,0.1,0.4,0.1,0.6c0,0.2,0.1,0.3,0.2,0.4h-1.9
			c-0.1-0.3-0.2-0.6-0.2-1c0-0.4-0.1-0.7-0.1-1.1c-0.1-0.4-0.2-0.8-0.4-1c-0.2-0.2-0.6-0.3-1-0.3h-1.9V82h-1.9v-8.6L110.5,73.4
			L110.5,73.4z M109.8,77.3c0.4,0,0.8-0.1,1-0.3c0.2-0.2,0.3-0.5,0.3-0.9s-0.1-0.7-0.3-0.9c-0.2-0.2-0.5-0.3-1-0.3h-2.1v2.4
			L109.8,77.3L109.8,77.3z"/>
		<polygon class="st1" points="121.6,73.4 121.6,75 117.1,75 117.1,76.8 121.3,76.8 121.3,78.3 117.1,78.3 117.1,80.4 121.7,80.4 
			121.7,82 115.2,82 115.2,73.4 		"/>
		<polygon class="st1" points="125.6,73.4 129.2,79.2 129.2,79.2 129.2,73.4 130.9,73.4 130.9,82 129.1,82 125.5,76.2 125.5,76.2 
			125.5,82 123.7,82 123.7,73.4 		"/>
		<polygon class="st1" points="132.6,75 132.6,73.4 139.7,73.4 139.7,75 137.1,75 137.1,82 135.2,82 135.2,75 		"/>
		<path class="st1" d="M144.5,73.4l3.2,8.6h-1.9l-0.6-1.9h-3.2l-0.7,1.9h-1.9l3.2-8.6H144.5L144.5,73.4z M144.6,78.7l-1.1-3.1h0
			l-1.1,3.1H144.6z"/>
		<polygon class="st1" points="151.1,73.4 151.1,80.4 155.3,80.4 155.3,82 149.2,82 149.2,73.4 		"/>
		<polygon class="st1" points="163,73.4 163,80.4 167.1,80.4 167.1,82 161.1,82 161.1,73.4 		"/>
		<rect x="168.9" y="73.4" class="st1" width="1.9" height="8.6"/>
		<polygon class="st1" points="175,82 172.3,73.4 174.2,73.4 176.1,79.4 176.1,79.4 178,73.4 180,73.4 177.2,82 		"/>
		<rect x="181.5" y="73.4" class="st1" width="1.9" height="8.6"/>
		<polygon class="st1" points="187.6,73.4 191.1,79.2 191.2,79.2 191.2,73.4 192.9,73.4 192.9,82 191,82 187.5,76.2 187.5,76.2 
			187.5,82 185.7,82 185.7,73.4 		"/>
		<path class="st1" d="M200.4,81.9c-0.4,0.2-0.8,0.3-1.2,0.3c-0.7,0-1.2-0.1-1.8-0.3c-0.5-0.2-1-0.5-1.3-0.9
			c-0.4-0.4-0.6-0.9-0.8-1.4c-0.2-0.5-0.3-1.1-0.3-1.8s0.1-1.2,0.3-1.8c0.2-0.6,0.5-1,0.8-1.4c0.4-0.4,0.8-0.7,1.3-1
			c0.5-0.2,1.1-0.3,1.8-0.3c0.4,0,0.9,0.1,1.3,0.2c0.4,0.1,0.8,0.3,1.1,0.6c0.3,0.3,0.6,0.6,0.8,0.9c0.2,0.4,0.4,0.8,0.4,1.3H201
			c-0.1-0.5-0.3-0.8-0.6-1.1c-0.3-0.2-0.7-0.4-1.2-0.4c-0.4,0-0.8,0.1-1.1,0.2c-0.3,0.2-0.5,0.4-0.7,0.7c-0.2,0.3-0.3,0.6-0.4,0.9
			c-0.1,0.3-0.1,0.7-0.1,1.1s0,0.7,0.1,1.1c0.1,0.3,0.2,0.7,0.4,0.9s0.4,0.5,0.7,0.7s0.7,0.2,1.1,0.2c0.6,0,1.1-0.2,1.4-0.5
			c0.3-0.3,0.5-0.8,0.6-1.4h-1.9v-1.4h3.6V82h-1.2l-0.2-1C201.1,81.5,200.8,81.8,200.4,81.9"/>
		<path class="st1" d="M206.9,80.1V82c0,0.3,0,0.5-0.1,0.8s-0.2,0.4-0.4,0.6s-0.4,0.3-0.6,0.4c-0.2,0.1-0.5,0.2-0.7,0.2v-0.9
			c0.1,0,0.2-0.1,0.3-0.1s0.2-0.2,0.3-0.3s0.1-0.2,0.2-0.3c0-0.1,0.1-0.2,0-0.4h-0.9v-1.8L206.9,80.1L206.9,80.1z"/>
		<path class="st1" d="M220.9,66.8h7.8l-0.3,1.1c-1.4,0-1.7,0.1-2,1.2l-2,7.6c-1,3.9-2.6,5.3-6.2,5.3c-2.8,0-4.5-1.3-4.5-3.8
			c0-2.1,1.2-3.3,2.7-3.3c1.3,0,2.2,0.7,2.2,2c0,1-0.7,1.8-1.7,1.8c-0.8,0-1-0.4-1.4-0.4c-0.3,0-0.5,0.2-0.5,0.7
			c0,1.1,1.2,1.8,2.2,1.8c1.3,0,2.8-1,3.5-3.4c0.7-2.7,2.2-8.2,2.2-8.8s-0.4-0.7-2.3-0.7L220.9,66.8L220.9,66.8z"/>
		<path class="st1" d="M227.9,72.1l5.4-0.2c-1.3,4.6-2.5,7.2-2.5,7.9c0,0.2,0.2,0.6,0.6,0.6c0.6,0,1.7-0.7,2.6-2.2
			c0.8-1.2,1.3-2.7,2.2-5.9h3.3c-0.9,2.1-2.5,7-2.5,7.8c0,0.2,0.1,0.3,0.4,0.3c0.2,0,0.6-0.2,2-2.2l0.7,0.5
			c-1.8,2.7-2.9,3.4-4.4,3.4c-1.1,0-1.9-0.5-1.9-1.7c0-0.3,0-0.5,0.1-0.8l0,0c-0.9,1.3-2.3,2.4-4,2.4c-1.3,0-2.3-0.9-2.3-2.1
			c0-1.4,1.8-5.7,1.8-6.2c0-0.6-0.2-0.8-1.1-0.8h-0.7L227.9,72.1L227.9,72.1z"/>
		<path class="st1" d="M242,72.1l5-0.2l-0.7,2.8l0,0c1.4-2,2.7-2.9,4.3-2.9c1.2,0,2.3,0.7,2.3,2.3c0,1.3-1.8,5.3-1.8,5.8
			c0,0.2,0.1,0.3,0.3,0.3c0.3,0,0.8-0.3,2.2-2.2l0.7,0.5c-1,1.5-2.3,3.4-4.4,3.4c-1,0-2-0.6-2-1.7c0-1.3,1.8-5.1,1.8-6.1
			c0-0.5-0.3-0.6-0.6-0.6c-1.1,0-2.5,1.8-3,2.8c-0.7,1.3-1.1,2.8-1.7,5.3h-3.3l1.9-6.1c0.4-1.3,0.5-1.7,0.5-1.8
			c0-0.6-0.2-0.8-1.1-0.8h-0.7L242,72.1L242,72.1z"/>
		<path class="st1" d="M264.2,79.3c-1.3,1.5-2.6,2.7-4.7,2.7c-2.4,0-4.3-1.3-4.3-3.8c0-3.9,3.3-6.3,6.5-6.3c1.8,0,3.4,0.8,3.4,2.8
			c0,1.1-0.8,1.8-1.9,1.8c-0.9,0-1.4-0.7-1.4-1.5c0-1.1,1-1.1,1-1.5c0-0.3-0.3-0.6-0.9-0.6c-0.7,0-1.3,0.3-2,1.4
			c-0.6,0.8-1.4,3-1.4,4.6c0,1.2,0.5,2.1,1.8,2.1c1.1,0,2.1-0.8,3.1-2L264.2,79.3L264.2,79.3z"/>
		<path class="st1" d="M270.6,68.3h3l-1.2,3.9h2.2l-0.3,1.2H272c-1.8,5.4-2,6.2-2,6.6c0,0.3,0.2,0.4,0.4,0.4c0.4,0,0.9-0.5,2.3-2.4
			l0.7,0.5c-1.1,1.8-2.6,3.5-4.4,3.5c-1,0-2.1-0.8-2.1-1.8c0-0.9,0.3-1.8,2.1-6.8H267l0.3-1.2h2C269.3,72.2,270.6,68.3,270.6,68.3z"
			/>
		<path class="st1" d="M275.6,72.1l5.4-0.2c-2.5,7.6-2.5,7.9-2.5,8.2c0,0.3,0.1,0.4,0.4,0.4c0.5,0,1.3-0.9,2.2-2.3l0.8,0.5
			c-1.4,2.1-2.6,3.4-4.4,3.4c-1,0-2.1-0.6-2.1-1.8s1.7-5.6,1.7-6.4c0-0.6-0.2-0.8-1.1-0.8h-0.6L275.6,72.1z M279.9,66.5
			c1,0,1.7,0.8,1.7,1.7s-0.8,1.7-1.7,1.7s-1.7-0.8-1.7-1.7S278.9,66.5,279.9,66.5"/>
		<path class="st1" d="M289,71.9c2.6,0,4.6,1.3,4.6,4c0,3.6-3.1,6.1-6.3,6.1c-2.6,0-4.6-1.3-4.6-4C282.7,74.4,285.8,71.9,289,71.9
			 M289.1,72.8c-1,0-1.8,0.9-2.4,2.7c-0.5,1.3-0.8,3.2-0.8,3.9c0,0.9,0.3,1.8,1.3,1.8s1.8-0.9,2.4-2.7c0.5-1.3,0.8-3.2,0.8-3.9
			C290.4,73.6,290.1,72.8,289.1,72.8"/>
		<path class="st1" d="M295.4,72.1l5-0.2l-0.7,2.8l0,0c1.4-2,2.7-2.9,4.3-2.9c1.2,0,2.3,0.7,2.3,2.3c0,1.3-1.8,5.3-1.8,5.8
			c0,0.2,0.1,0.3,0.3,0.3c0.3,0,0.8-0.3,2.2-2.2l0.7,0.5c-1,1.5-2.3,3.4-4.4,3.4c-1,0-2-0.6-2-1.7c0-1.3,1.8-5.1,1.8-6.1
			c0-0.5-0.3-0.6-0.6-0.6c-1.1,0-2.5,1.8-3,2.8c-0.7,1.3-1.1,2.8-1.7,5.3h-3.3l1.9-6.1c0.4-1.3,0.5-1.7,0.5-1.8
			c0-0.6-0.2-0.8-1.1-0.8h-0.7L295.4,72.1L295.4,72.1z"/>
		<path class="st1" d="M325,66.8h5.6l-0.3,1.1c-1,0-1.7,0.8-2.2,1.6l-7.3,12.3h-1.4l-2.5-12.4c-0.3-1.5-0.5-1.6-2.2-1.6l0.3-1.1h7.4
			l-0.3,1.1h-1c-0.5,0-0.8,0.2-0.8,0.7c0,0.2,0,0.4,1.6,9h0c4.6-8.2,4.7-8.5,4.7-8.8c0-0.6-0.5-0.9-1.1-0.9h-0.8L325,66.8L325,66.8z
			"/>
		<path class="st1" d="M329.5,72.1l5.4-0.2c-2.5,7.6-2.5,7.9-2.5,8.2c0,0.3,0.1,0.4,0.4,0.4c0.5,0,1.3-0.9,2.2-2.3l0.8,0.5
			c-1.4,2.1-2.6,3.4-4.4,3.4c-1,0-2.1-0.6-2.1-1.8s1.7-5.6,1.7-6.4c0-0.6-0.2-0.8-1.1-0.8h-0.6L329.5,72.1z M333.8,66.5
			c1,0,1.7,0.8,1.7,1.7s-0.8,1.7-1.7,1.7s-1.7-0.8-1.7-1.7S332.8,66.5,333.8,66.5"/>
		<path class="st1" d="M338.5,66.7l5.3-0.2l-2,6.4l0,0c0.6-0.6,1.8-1.1,2.7-1.1c2,0,3.5,1.3,3.5,3.6c0,3-2.7,6.5-6.6,6.5
			c-2.4,0-4.3-1.1-4.3-3.4c0-1.9,2.9-9.1,2.9-10.2c0-0.6-0.2-0.8-1.1-0.8h-0.7L338.5,66.7L338.5,66.7z M343.4,73.3
			c-0.7,0-1.3,0.4-1.8,1.2c-0.8,1.2-1.5,3.4-1.5,5.1c0,0.9,0.4,1.6,1.4,1.6c0.6,0,1.2-0.3,1.8-1.2c0.7-0.9,1.5-3.4,1.5-5.1
			C344.8,73.9,344.3,73.3,343.4,73.3"/>
		<path class="st1" d="M358,79.8c-1.2,1.4-2.8,2.1-4.6,2.1c-2.5,0-4.2-1.1-4.2-3.8c0-3.5,3-6.4,6.5-6.4c1.9,0,3.4,1,3.4,2.5
			c0,2.8-4.5,3.5-6.6,3.6c0,0.3-0.1,0.6-0.1,0.9c0,1.3,0.6,2,1.9,2c1,0,2-0.6,3.1-1.7L358,79.8L358,79.8z M355.6,72.7
			c-1.2,0-2.5,1.7-3,4.3c2.1-0.2,4-1.6,4-3.3C356.6,73.2,356.2,72.8,355.6,72.7"/>
	</g>
</g>
</svg>
