<?xml version="1.0" encoding="UTF-8"?><svg id="Layer_1" xmlns="http://www.w3.org/2000/svg" xmlns:xlink="http://www.w3.org/1999/xlink" viewBox="0 0 721.92 688.94"><defs><style>.cls-1{fill:none;}.cls-2{clip-path:url(#clippath);}.cls-3,.cls-4{fill:#fff;}.cls-4{opacity:.15;}</style><clipPath id="clippath"><rect class="cls-1" x="249.6" y="262.53" width="230.06" height="147.38"/></clipPath></defs><polyline class="cls-4" points="17 257.48 274.48 0 343.96 69.48 86.48 326.95 17 257.48"/><polyline class="cls-4" points="704.92 257.48 635.44 326.95 377.96 69.48 447.44 0 704.92 257.48"/><polyline class="cls-4" points="704.92 430.46 447.44 687.94 377.96 618.46 635.44 360.98 704.92 430.46"/><polyline class="cls-4" points="17 430.46 274.48 687.94 343.96 618.46 86.48 360.98 17 430.46"/><rect class="cls-3" x="332.76" y="283.68" width="30.6" height="8.26" transform="translate(-101.56 330.41) rotate(-45)"/><rect class="cls-3" x="374.26" y="272.51" width="8.26" height="30.6" transform="translate(-92.68 351.86) rotate(-45)"/><rect class="cls-3" x="363.09" y="314.01" width="30.6" height="8.26" transform="translate(-114.13 360.74) rotate(-45)"/><rect class="cls-3" x="343.93" y="302.84" width="8.26" height="30.6" transform="translate(-123.01 339.3) rotate(-45)"/><polygon class="cls-3" points="279.25 356.6 274.86 356.6 274.86 384.35 269.3 384.35 269.3 356.6 264.95 356.6 264.95 352.17 279.25 352.17 279.25 356.6"/><polygon class="cls-3" points="299.35 384.35 293.84 384.35 293.84 370.14 290.66 370.14 290.66 384.27 285.14 384.27 285.14 352.17 290.66 352.17 290.66 365.62 293.84 365.62 293.84 352.17 299.35 352.17 299.35 384.35"/><polygon class="cls-3" points="317.24 384.27 305.95 384.27 305.95 352.17 317.2 352.17 317.2 356.6 311.51 356.6 311.51 365.5 316.24 365.5 316.24 370.01 311.51 370.01 311.51 379.84 317.24 379.84 317.24 384.27"/><g class="cls-2"><path class="cls-3" d="m345.49,377.54c0,5.1-2.59,6.73-6.98,6.73h-6.94v-32.1h6.81c4.64,0,7.11,1.76,7.11,7.27v18.1Zm-5.56-18.68c0-1.84-.54-2.26-1.71-2.26h-1.09v23.24h1c1.34,0,1.8-.54,1.8-2.05v-18.93Z"/><rect class="cls-3" x="351.76" y="352.17" width="5.56" height="32.1"/><path class="cls-3" d="m377.38,384.27h-5.6l-.42-4.47h-3.3l-.42,4.47h-4.64l4.14-32.1h5.98l4.26,32.1Zm-6.56-8.94l-1-12.79-1.3,12.79h2.3Z"/><polygon class="cls-3" points="401.37 384.35 396.02 384.35 396.02 369.3 393.64 384.35 390.21 384.35 387.71 369.3 387.71 384.35 383.11 384.35 383.11 352.17 389.54 352.17 392.09 371.1 395.1 352.17 401.37 352.17 401.37 384.35"/><path class="cls-3" d="m421.52,377.66c0,5.27-3.14,7.11-6.85,7.11s-7.02-1.97-7.02-7.11v-18.93c0-5.22,3.26-7.11,7.02-7.11s6.85,1.84,6.85,7.11v18.93Zm-5.52-20.02c0-1.25-.71-1.75-1.38-1.75-.84,0-1.42.5-1.42,1.75v21.07c0,1.21.54,1.76,1.46,1.76.83,0,1.34-.5,1.34-1.71v-21.11Z"/><polygon class="cls-3" points="440.66 384.35 436.56 384.35 432.43 367.84 432.43 384.35 427.83 384.35 427.83 352.17 432.51 352.17 436.06 366.42 436.06 352.17 440.66 352.17 440.66 384.35"/><path class="cls-3" d="m461.18,377.54c0,5.1-2.59,6.73-6.98,6.73h-6.94v-32.1h6.81c4.64,0,7.11,1.76,7.11,7.27v18.1Zm-5.56-18.68c0-1.84-.54-2.26-1.71-2.26h-1.09v23.24h1c1.34,0,1.8-.54,1.8-2.05v-18.93Z"/><path class="cls-3" d="m258.57,396.07c.33,0,.64.05.91.16.27.11.5.26.69.44.19.19.34.41.44.65.1.25.15.51.15.8,0,.44-.09.82-.28,1.14-.19.32-.49.56-.91.73v.02c.2.06.37.14.5.26.13.12.24.25.32.41.08.16.15.33.18.52.04.19.06.38.08.57,0,.12.01.26.02.42,0,.16.02.32.04.49.02.17.05.33.08.48.04.15.1.28.17.38h-1.64c-.09-.24-.15-.52-.17-.85s-.05-.64-.1-.94c-.05-.39-.17-.68-.35-.86-.18-.18-.48-.27-.89-.27h-1.64v2.92h-1.64v-7.47h4.03Zm-.59,3.38c.38,0,.66-.08.85-.25.19-.17.28-.44.28-.82s-.09-.63-.28-.79c-.19-.16-.47-.25-.85-.25h-1.8v2.1h1.8Z"/><polygon class="cls-3" points="268.31 396.07 268.31 397.45 264.37 397.45 264.37 399.05 267.99 399.05 267.99 400.33 264.37 400.33 264.37 402.16 268.39 402.16 268.39 403.54 262.72 403.54 262.72 396.07 268.31 396.07"/><polygon class="cls-3" points="271.76 396.07 274.88 401.08 274.9 401.08 274.9 396.07 276.44 396.07 276.44 403.54 274.8 403.54 271.69 398.54 271.67 398.54 271.67 403.54 270.13 403.54 270.13 396.07 271.76 396.07"/><polygon class="cls-3" points="277.93 397.45 277.93 396.07 284.05 396.07 284.05 397.45 281.81 397.45 281.81 403.54 280.17 403.54 280.17 397.45 277.93 397.45"/><path class="cls-3" d="m288.3,396.07l2.79,7.47h-1.71l-.56-1.66h-2.79l-.59,1.66h-1.65l2.82-7.47h1.68Zm.09,4.58l-.94-2.74h-.02l-.97,2.74h1.94Z"/><polygon class="cls-3" points="294.01 396.07 294.01 402.16 297.65 402.16 297.65 403.54 292.37 403.54 292.37 396.07 294.01 396.07"/><polygon class="cls-3" points="304.38 396.07 304.38 402.16 308.02 402.16 308.02 403.54 302.74 403.54 302.74 396.07 304.38 396.07"/><rect class="cls-3" x="309.57" y="396.07" width="1.64" height="7.47"/><polygon class="cls-3" points="314.9 403.54 312.49 396.07 314.17 396.07 315.84 401.32 315.86 401.32 317.54 396.07 319.24 396.07 316.76 403.54 314.9 403.54"/><rect class="cls-3" x="320.5" y="396.07" width="1.64" height="7.47"/><polygon class="cls-3" points="325.85 396.07 328.97 401.08 328.99 401.08 328.99 396.07 330.53 396.07 330.53 403.54 328.88 403.54 325.78 398.54 325.75 398.54 325.75 403.54 324.22 403.54 324.22 396.07 325.85 396.07"/><path class="cls-3" d="m337.02,403.48c-.36.15-.72.23-1.08.23-.57,0-1.09-.1-1.54-.3-.46-.2-.84-.47-1.16-.82-.31-.35-.55-.76-.72-1.23-.17-.47-.25-.98-.25-1.52s.08-1.08.25-1.55c.17-.48.41-.9.72-1.25.31-.36.7-.63,1.16-.84.46-.2.97-.3,1.54-.3.38,0,.75.06,1.11.17.36.12.68.28.97.51.29.22.53.5.72.83.19.33.3.71.34,1.13h-1.57c-.1-.42-.29-.73-.57-.94-.28-.21-.62-.31-1.01-.31-.37,0-.68.07-.94.21-.26.14-.47.34-.63.58-.16.24-.28.51-.35.82-.07.31-.11.62-.11.95s.04.62.11.92.19.56.35.8c.16.24.37.43.63.57.26.14.57.21.94.21.54,0,.96-.14,1.26-.41.3-.27.47-.67.52-1.2h-1.65v-1.22h3.14v4.04h-1.05l-.17-.85c-.29.38-.62.64-.97.79"/><path class="cls-3" d="m342.73,401.93v1.61c0,.24-.04.46-.13.66-.09.2-.2.37-.35.52-.15.15-.32.27-.52.36-.2.09-.41.16-.63.19v-.75c.1-.02.2-.06.3-.13.09-.06.18-.14.25-.22.07-.09.12-.18.16-.29.03-.11.05-.22.04-.33h-.75v-1.61h1.64Z"/><path class="cls-3" d="m354.88,390.31h6.83l-.25.97c-1.2,0-1.47.09-1.72,1.03l-1.74,6.6c-.9,3.4-2.26,4.65-5.44,4.65-2.46,0-3.92-1.1-3.92-3.27,0-1.85,1.06-2.86,2.32-2.86,1.1,0,1.94.61,1.94,1.78,0,.85-.65,1.58-1.51,1.58-.7,0-.9-.4-1.22-.4-.27,0-.4.2-.4.65,0,.92,1.06,1.54,1.92,1.54,1.17,0,2.46-.86,3.04-3,.63-2.37,1.94-7.19,1.94-7.73s-.38-.58-2.03-.58l.25-.97Z"/><path class="cls-3" d="m361.01,394.91l4.67-.2c-1.15,4.04-2.18,6.25-2.18,6.87,0,.22.16.5.48.5.52,0,1.47-.65,2.3-1.9.7-1.06,1.11-2.37,1.94-5.19h2.88c-.74,1.8-2.19,6.15-2.19,6.81,0,.18.13.29.36.29.22,0,.5-.18,1.76-1.96l.65.47c-1.56,2.33-2.53,2.97-3.81,2.97-.94,0-1.65-.45-1.65-1.44,0-.23,0-.47.07-.67l-.04-.03c-.79,1.09-1.99,2.14-3.45,2.14-1.11,0-2-.77-2-1.81,0-1.22,1.56-5,1.56-5.39,0-.5-.22-.66-.99-.66h-.58l.2-.77Z"/><path class="cls-3" d="m373.32,394.91l4.33-.2-.61,2.46.04.04c1.24-1.72,2.32-2.5,3.74-2.5,1.08,0,1.98.63,1.98,1.98,0,1.17-1.58,4.65-1.58,5.1,0,.21.11.29.29.29.25,0,.74-.23,1.92-1.94l.65.45c-.85,1.33-2.03,2.97-3.79,2.97-.92,0-1.76-.5-1.76-1.51,0-1.1,1.58-4.44,1.58-5.3,0-.41-.23-.56-.5-.56-.95,0-2.19,1.58-2.64,2.44-.57,1.11-.93,2.43-1.49,4.65h-2.87l1.65-5.32c.34-1.1.45-1.44.45-1.62,0-.5-.22-.66-.99-.66h-.58l.2-.77Z"/><path class="cls-3" d="m392.74,401.24c-1.13,1.29-2.3,2.32-4.13,2.32-2.05,0-3.72-1.15-3.72-3.32,0-3.45,2.89-5.52,5.68-5.52,1.55,0,2.98.68,2.98,2.41,0,.93-.7,1.55-1.62,1.55-.76,0-1.26-.61-1.26-1.35,0-.97.88-.93.88-1.35,0-.25-.23-.49-.81-.49-.63,0-1.11.31-1.78,1.19-.54.72-1.2,2.62-1.2,4.01,0,1.02.47,1.8,1.6,1.8.93,0,1.83-.7,2.75-1.78l.63.54Z"/><path class="cls-3" d="m398.29,391.6h2.59l-1.04,3.38h1.94l-.29,1.08h-2.01c-1.54,4.74-1.74,5.37-1.74,5.73,0,.27.14.39.33.39.3,0,.79-.47,1.99-2.12l.58.43c-.97,1.54-2.3,3.06-3.84,3.06-.9,0-1.82-.66-1.82-1.6,0-.81.27-1.53,1.82-5.89h-1.64l.29-1.08h1.71l1.15-3.38Z"/><path class="cls-3" d="m402.62,394.91l4.71-.2c-2.14,6.6-2.21,6.86-2.21,7.13,0,.23.09.34.31.34.48,0,1.11-.77,1.96-2.03l.66.47c-1.24,1.82-2.3,2.93-3.79,2.93-.88,0-1.83-.56-1.83-1.58s1.49-4.91,1.49-5.62c0-.5-.21-.66-.99-.66h-.5l.2-.77Zm3.76-4.87c.83,0,1.49.67,1.49,1.49s-.66,1.49-1.49,1.49-1.49-.66-1.49-1.49.67-1.49,1.49-1.49"/><path class="cls-3" d="m414.38,394.71c2.25,0,3.99,1.1,3.99,3.51,0,3.13-2.69,5.34-5.54,5.34-2.24,0-3.99-1.1-3.99-3.5,0-3.13,2.7-5.34,5.54-5.34m.05.77c-.88,0-1.55.77-2.09,2.32-.4,1.15-.74,2.79-.74,3.43,0,.83.27,1.55,1.17,1.55s1.55-.77,2.08-2.32c.4-1.15.74-2.79.74-3.43,0-.83-.27-1.55-1.17-1.55"/><path class="cls-3" d="m419.89,394.91l4.33-.2-.61,2.46.04.04c1.24-1.72,2.32-2.5,3.74-2.5,1.08,0,1.98.63,1.98,1.98,0,1.17-1.58,4.65-1.58,5.1,0,.21.11.29.29.29.25,0,.74-.23,1.92-1.94l.65.45c-.85,1.33-2.03,2.97-3.79,2.97-.92,0-1.76-.5-1.76-1.51,0-1.1,1.58-4.44,1.58-5.3,0-.41-.23-.56-.5-.56-.95,0-2.19,1.58-2.64,2.44-.57,1.11-.93,2.43-1.49,4.65h-2.87l1.65-5.32c.34-1.1.45-1.44.45-1.62,0-.5-.22-.66-.99-.66h-.58l.2-.77Z"/><path class="cls-3" d="m445.75,390.31h4.85l-.25.97c-.85.02-1.51.67-1.96,1.42l-6.34,10.76h-1.19l-2.17-10.82c-.27-1.35-.4-1.37-1.92-1.37l.25-.97h6.49l-.25.97h-.92c-.47,0-.7.18-.7.58,0,.14.02.34,1.42,7.83h.04c4.02-7.13,4.1-7.42,4.1-7.65,0-.52-.41-.76-.95-.76h-.74l.25-.97Z"/><path class="cls-3" d="m449.65,394.91l4.71-.2c-2.14,6.6-2.21,6.86-2.21,7.13,0,.23.09.34.31.34.48,0,1.11-.77,1.96-2.03l.66.47c-1.24,1.82-2.3,2.93-3.79,2.93-.88,0-1.83-.56-1.83-1.58s1.49-4.91,1.49-5.62c0-.5-.21-.66-.99-.66h-.5l.2-.77Zm3.76-4.87c.83,0,1.49.67,1.49,1.49s-.66,1.49-1.49,1.49-1.49-.66-1.49-1.49.67-1.49,1.49-1.49"/><path class="cls-3" d="m457.54,390.24l4.65-.2-1.73,5.59.04.04c.52-.56,1.55-.95,2.32-.95,1.74,0,3.05,1.13,3.05,3.16,0,2.59-2.35,5.68-5.73,5.68-2.08,0-3.76-.93-3.76-3,0-1.69,2.52-7.91,2.52-8.88,0-.5-.22-.67-.99-.67h-.58l.2-.77Zm4.24,5.7c-.59,0-1.15.4-1.6,1.06-.72,1.06-1.31,2.98-1.31,4.4,0,.81.38,1.38,1.22,1.38.54,0,1.02-.25,1.6-1.04.58-.77,1.31-3,1.31-4.42,0-.81-.38-1.38-1.22-1.38"/><path class="cls-3" d="m474.55,401.69c-1.08,1.2-2.41,1.87-4.04,1.87-2.17,0-3.67-.95-3.67-3.27,0-3.02,2.64-5.57,5.66-5.57,1.67,0,2.95.86,2.95,2.16,0,2.43-3.94,3.06-5.77,3.16-.04.25-.07.52-.07.77,0,1.13.52,1.78,1.69,1.78.88,0,1.71-.5,2.68-1.49l.57.59Zm-2.1-6.2c-1.08,0-2.17,1.44-2.64,3.77,1.82-.2,3.49-1.38,3.49-2.89,0-.47-.32-.88-.84-.88"/></g></svg>