<?xml version="1.0" encoding="UTF-8"?><svg id="Layer_1" xmlns="http://www.w3.org/2000/svg" viewBox="0 0 796.6 755.09"><defs><style>.cls-1{fill:#ee4136;}</style></defs><path class="cls-1" d="m201.01,360.16h-58.88v-165.59l-26.22,165.59h-37.72l-27.6-165.59v165.59H0V5.98h70.84l28.06,208.37L132.01,5.98h69v354.18Z"/><path class="cls-1" d="m413.51,286.56c0,57.96-34.5,78.2-75.44,78.2s-77.28-21.62-77.28-78.2V78.2C260.8,20.7,296.68,0,338.08,0s75.44,20.24,75.44,78.2v208.37Zm-60.72-220.33c0-13.8-7.82-19.32-15.18-19.32-9.2,0-15.64,5.52-15.64,19.32v231.83c0,13.34,5.98,19.32,16.1,19.32,9.2,0,14.72-5.52,14.72-18.86V66.24Z"/><path class="cls-1" d="m618.19,5.98l-43.24,354.18h-72.68L458.12,5.98h63.02l19.32,230.91,21.62-230.91h56.12Z"/><path class="cls-1" d="m794.35,359.24h-124.19V5.98h123.73v48.76h-62.56v97.98h51.98v49.68h-51.98v108.09h63.02v48.76Z"/><path class="cls-1" d="m227.02,404.11c47.17,0,81.72,32.74,81.72,77.33,0,60.84-51.04,116.52-113.17,116.52-50.78,0-82.49-29.65-82.49-77.33,0-60.84,51.04-116.52,113.94-116.52Zm1.8,12.63c-22.43,0-42.79,20.62-57.74,60.32-6.44,17.01-12.12,42.28-12.12,58.26,0,40.99,17.01,48.72,34.28,48.72,22.17,0,42.28-20.62,57.49-60.32,6.44-17.01,12.12-42.28,12.12-58.26,0-40.99-17.01-48.72-34.03-48.72Z"/><path class="cls-1" d="m328.84,473.97l62.13-2.84-8.76,35.32.52.52c17.79-24.75,33.25-35.83,53.62-35.83,15.47,0,28.36,9.02,28.36,28.36,0,16.76-22.69,66.77-22.69,73.21,0,3.09,1.55,4.12,4.12,4.12,3.61,0,10.57-3.35,27.58-27.84l9.28,6.45c-12.12,19.08-29.13,42.53-54.39,42.53-13.15,0-25.26-7.22-25.26-21.65,0-15.72,22.68-63.67,22.68-76.05,0-5.93-3.35-7.99-7.22-7.99-13.66,0-31.45,22.69-37.89,35.06-8.25,15.98-13.4,34.8-21.4,66.77h-41.25l23.72-76.3c4.9-15.72,6.44-20.62,6.44-23.2,0-7.22-3.09-9.54-14.18-9.54h-8.25l2.84-11.08Z"/><path class="cls-1" d="m591.91,754.17h-61.18v-353.26h61.18v353.26Z"/><path class="cls-1" d="m796.6,755.09h-45.08l-45.54-181.69v181.69h-50.6v-354.18h51.52l39.1,156.85v-156.85h50.6v354.18Z"/></svg>