<?xml version="1.0" encoding="utf-8"?>
<!-- Generator: Adobe Illustrator 27.5.0, SVG Export Plug-In . SVG Version: 6.00 Build 0)  -->
<svg version="1.1" id="Layer_1" xmlns="http://www.w3.org/2000/svg" xmlns:xlink="http://www.w3.org/1999/xlink" x="0px" y="0px"
	 viewBox="0 0 689.5 246.8" style="enable-background:new 0 0 689.5 246.8;" xml:space="preserve">
<style type="text/css">
	.st0{fill:#FFFFFF;}
</style>
<g>
	<path class="st0" d="M36.1,134.4c-1-2.4-1.5-5.1-1.7-7.8c-0.3-11.4-0.3-15.7-0.5-24c-0.3-19.6-3.1-21.6-5.8-21.6h-3.2v53.4H2.2V3.3
		h28.3c18.2,0,27.9,10.4,27.9,34.4c0,18.2-1.5,27.9-12.9,33.5c9.9,6.3,10.9,21.6,10.9,30v9.9c0,12.3,0.7,17,2.2,23.3H36.1z
		 M27.9,21.4h-3.1v41.4h2.9c5.1,0,8.5-4.1,8.5-21.6C36.2,24.1,32.8,21.4,27.9,21.4z"/>
	<path class="st0" d="M125.4,134h-46V3.3h45.8v18h-23.1v36.3h19.2V76h-19.2v40h23.3V134z"/>
	<path class="st0" d="M201,134h-6.1l-3.4-5.6c-4.8,5.4-10.7,7.7-21.3,7.7c-15.3,0-25.2-8.7-25.2-26.2V30.2
		c0-19.4,10.9-29.1,27.7-29.1c15.5,0,25.2,6.1,25.2,29.3c0,6.3-0.5,12.3-1.2,16.7l-17.2-1.4c0.5-3.7,1-7.1,1-12.9
		c0-12.4-2.7-14.3-6.5-14.3c-5.1,0-6.5,2.7-6.5,8.7v84.4c0,4.9,1.9,7.5,6.3,7.5c3.6,0,5.4-2.6,5.4-7.5V71.4H201V134z"/>
	<path class="st0" d="M245.9,134h-22.6V3.3h22.6V134z"/>
	<path class="st0" d="M319.4,106.1c0,20.9-10.9,30-27.4,30c-17.5,0-24.5-10.7-24.5-29.6c0-7.1,0.7-13.6,1.4-18.4l17,2
		c-0.7,4.9-1.2,10-1.2,14.5c0,11.1,1.9,14,6,14c3.7,0,5.8-2.9,5.8-10.9v-3.6c0-9.7-2.7-18.6-13.8-32c-11.1-13.3-15.5-24-15.5-39v-2
		c0-17,6.6-30,26-30c18.6,0,24.3,11.7,24.3,29.6c0,6.5-0.5,11.1-1.2,16.2l-17.2-2c0.5-4.4,0.9-5.4,0.9-12.3
		c0-11.4-1.7-14.1-5.3-14.1c-3.7,0-4.9,2.6-4.9,10.2v2.7c0,7.5,2.9,15.1,10.9,25.4c11.2,14.5,18.7,30.1,18.7,46.8V106.1z"/>
	<path class="st0" d="M391.4,21.4h-17.9v113h-22.6v-113h-17.7v-18h58.2V21.4z"/>
	<path class="st0" d="M458,134h-46V3.3h45.8v18h-23.1v36.3h19.2V76h-19.2v40H458V134z"/>
	<path class="st0" d="M512.8,134.4c-1-2.4-1.5-5.1-1.7-7.8c-0.3-11.4-0.3-15.7-0.5-24c-0.3-19.6-3.1-21.6-5.8-21.6h-3.2v53.4h-22.6
		V3.3h28.3c18.2,0,27.9,10.4,27.9,34.4c0,18.2-1.5,27.9-12.9,33.5c9.9,6.3,10.9,21.6,10.9,30v9.9c0,12.3,0.7,17,2.2,23.3H512.8z
		 M504.6,21.4h-3.1v41.4h2.9c5.1,0,8.5-4.1,8.5-21.6C513,24.1,509.5,21.4,504.6,21.4z"/>
</g>
<g>
	<path class="st0" d="M195.5,204.4c0.4-1.9,0.7-3.7,0.7-5.6c0-8.5-4.1-9.7-11.4-9.7c-5.8,21.3-6.2,22.6-6.2,24.1
		c0,3.1,1,3.9,9.6,3.9l-1.3,5.2h-35.1l1.3-5.2c6.4,0,7.4-0.3,8.9-5.4c10.5-37.9,13.2-48.5,13.2-50.1c0-2.9-2-3.1-9.6-3.1l1.3-5.2
		h58.5l-3.8,23.4h-4.8c-0.2-14.6-3.7-18.2-18.5-18.2c-4.8,0-5.2,0.8-6.7,6l-5.4,19.3c1,0.1,2.1,0.1,3.1,0.1
		c7.3,0,12.3-3.8,15.2-11.6l4.9,0.5l-8.7,32.2L195.5,204.4z"/>
	<path class="st0" d="M247.8,176.8c11.9,0,21.2,5.8,21.2,18.6c0,16.6-14.3,28.3-29.4,28.3c-11.9,0-21.2-5.8-21.2-18.6
		C218.4,188.5,232.7,176.8,247.8,176.8z M248.1,180.9c-4.7,0-8.2,4.1-11.1,12.3c-2.1,6.1-3.9,14.8-3.9,18.2c0,4.4,1.4,8.2,6.2,8.2
		c4.7,0,8.2-4.1,11.1-12.3c2.1-6.1,3.9-14.8,3.9-18.2C254.3,184.7,252.8,180.9,248.1,180.9z"/>
	<path class="st0" d="M277.6,177.8l22.4-1L297,189l0.2,0.2c3.7-6.3,9.2-13.3,17.5-13.3c4.8,0,8.8,3.1,8.8,8c0,4.5-2.5,8-7.3,8
		c-3.6,0-6.4-2.4-6.4-6.3c0-2.1-0.2-2.5-1.3-2.5c-2,0-7.6,5.9-12,14.4c-3.1,5.9-5,12.9-7.9,24.7h-15.3l8.8-28.2
		c1.8-5.8,2.4-7.6,2.4-8.6c0-2.7-1.1-3.5-5.2-3.5h-2.5L277.6,177.8z"/>
</g>
<g>
	<path class="st0" d="M381.8,226.5c0,12.8-7.9,19.3-19.7,19.3c-12.1,0-19.6-6.5-19.6-19.2v-74.4h15.8v76c0,3.5,1.8,5.3,4.6,5.3
		c2.5,0,3.6-1.8,3.6-5.4v-75.8h15.2V226.5z"/>
	<path class="st0" d="M417.5,211.4h-3.6v33h-16v-92.2h19c13.7,0,20.4,7.3,20.4,29.2C437.3,204.4,428.7,211.4,417.5,211.4z
		 M415.5,164.9h-1.7v33.7h1.8c3.6,0,6-3.6,6-17.4C421.7,168.4,419.5,164.9,415.5,164.9z"/>
	<path class="st0" d="M491.6,225c0,14.6-7.4,19.3-20,19.3h-19.9v-92.2h19.6c13.3,0,20.4,5,20.4,20.9V225z M475.7,171.4
		c0-5.3-1.6-6.5-4.9-6.5h-3.1v66.7h2.9c3.8,0,5.2-1.6,5.2-5.9V171.4z"/>
	<path class="st0" d="M545.9,244.4h-16.1l-1.2-12.8h-9.5l-1.2,12.8h-13.3l11.9-92.2h17.2L545.9,244.4z M527,218.7l-2.9-36.7
		l-3.7,36.7H527z"/>
	<path class="st0" d="M590.5,164.9h-12.6v79.7h-16v-79.7h-12.5v-12.7h41V164.9z"/>
	<path class="st0" d="M637.4,244.4H605v-92.2h32.3v12.7H621v25.6h13.6v13H621v28.2h16.4V244.4z"/>
	<path class="st0" d="M687.4,224.7c0,14.8-7.7,21.1-19.3,21.1c-12.4,0-17.3-7.6-17.3-20.9c0-5,0.5-9.6,1-13l12,1.4
		c-0.5,3.5-0.8,7.1-0.8,10.2c0,7.8,1.3,9.8,4.2,9.8c2.6,0,4.1-2,4.1-7.7v-2.5c0-6.8-1.9-13.1-9.7-22.6c-7.8-9.4-10.9-16.9-10.9-27.5
		v-1.4c0-12,4.7-21.1,18.4-21.1c13.1,0,17.2,8.3,17.2,20.9c0,4.6-0.4,7.8-0.8,11.4l-12.1-1.4c0.4-3.1,0.6-3.8,0.6-8.6
		c0-8-1.2-10-3.7-10c-2.6,0-3.5,1.8-3.5,7.2v1.9c0,5.3,2,10.7,7.7,17.9c7.9,10.2,13.2,21.2,13.2,33V224.7z"/>
</g>
</svg>
